<?xml version="1.0" encoding="UTF-8"?>
<!DOCTYPE svg PUBLIC "-//W3C//DTD SVG 1.1//EN" "http://www.w3.org/Graphics/SVG/1.1/DTD/svg11.dtd">
<!-- Creator: CorelDRAW 2017 -->
<svg xmlns="http://www.w3.org/2000/svg" xml:space="preserve" width="0.265315in" height="0.265315in" version="1.1" style="shape-rendering:geometricPrecision; text-rendering:geometricPrecision; image-rendering:optimizeQuality; fill-rule:evenodd; clip-rule:evenodd"
viewBox="0 0 265.31 265.31"
 xmlns:xlink="http://www.w3.org/1999/xlink">
 <defs>
  <style type="text/css">
   <![CDATA[
    .fil0 {fill:#125BC9;fill-rule:nonzero}
   ]]>
  </style>
 </defs>
 <g id="Layer_x0020_1">
  <metadata id="CorelCorpID_0Corel-Layer"/>
  <path class="fil0" d="M132.66 0.01c36.63,0 69.79,14.85 93.8,38.85 24,24 38.85,57.17 38.85,93.8 0,36.63 -14.85,69.79 -38.85,93.8 -24,24 -57.17,38.85 -93.8,38.85 -36.63,0 -69.79,-14.85 -93.8,-38.85 -24,-24 -38.85,-57.17 -38.85,-93.8 0,-36.63 14.85,-69.79 38.85,-93.8 24,-24 57.17,-38.85 93.8,-38.85zm74.16 58.49c-18.97,-18.97 -45.2,-30.71 -74.16,-30.71 -28.96,0 -55.19,11.74 -74.16,30.71 -18.97,18.97 -30.71,45.2 -30.71,74.16 0,28.96 11.74,55.19 30.71,74.16 18.97,18.97 45.2,30.71 74.16,30.71 28.96,0 55.19,-11.74 74.16,-30.71 18.97,-18.97 30.71,-45.2 30.71,-74.16 0,-28.96 -11.74,-55.19 -30.71,-74.16zm-74.29 170.19c-23.46,0 -42.33,-9.26 -56.61,-27.78 -14.11,-18.87 -21.17,-41.63 -21.17,-68.26 0,-26.46 7.06,-49.12 21.17,-67.99 14.28,-18.7 33.16,-28.04 56.61,-28.04 23.81,0 42.68,9.35 56.61,28.04 14.29,18.69 21.43,41.36 21.43,67.99 0,26.81 -7.14,49.56 -21.43,68.26 -13.93,18.52 -32.8,27.78 -56.61,27.78zm0 -27.25c14.64,0 26.46,-6.61 35.45,-19.84 9,-13.23 13.5,-29.54 13.5,-48.94 0,-19.4 -4.5,-35.72 -13.5,-48.94 -8.99,-13.23 -20.81,-19.84 -35.45,-19.84 -14.46,0 -26.19,6.7 -35.19,20.11 -9,13.23 -13.5,29.46 -13.5,48.68 0,19.05 4.5,35.36 13.5,48.94 8.99,13.23 20.72,19.84 35.19,19.84z"/>
 </g>
</svg>
